<svg width="157" height="145" viewBox="0 0 157 145" fill="none" xmlns="http://www.w3.org/2000/svg">
<path d="M152.462 42.6653L152.149 43.2146C151.992 43.45 151.756 43.607 151.521 43.607H5.33594C5.10054 43.607 4.86514 43.45 4.70821 43.2146L4.39432 42.6653C4.08045 42.1945 4.47278 41.5668 5.02205 41.5668H151.835C152.384 41.4883 152.698 42.1161 152.462 42.6653Z" fill="#376999"/>
<path d="M154.424 144.987H2.27614C1.72687 144.987 1.41301 144.516 1.64841 144.202L2.66848 142.947C2.82541 142.79 3.06081 142.711 3.29621 142.711H153.404C153.64 142.711 153.875 142.79 154.032 142.947L154.974 144.202C155.287 144.595 154.973 144.987 154.424 144.987Z" fill="#376999"/>
<path d="M33.9771 48.3151L33.5848 49.1783C33.5063 49.4137 33.2709 49.4921 33.0355 49.4921H7.84746C7.61206 49.4921 7.45511 49.3352 7.29818 49.1783L6.90584 48.3151C6.7489 47.9228 6.98432 47.452 7.45512 47.452H33.5063C33.8986 47.452 34.134 47.9228 33.9771 48.3151Z" fill="#376999"/>
<path d="M32.4867 51.4542L31.5451 53.3374C31.4667 53.5728 31.2313 53.6513 30.9959 53.6513H9.73117C9.49577 53.6513 9.33882 53.4944 9.18189 53.3374L8.24032 51.4542C8.08338 51.0618 8.31875 50.5911 8.78955 50.5911H31.859C32.4083 50.5911 32.6437 51.0618 32.4867 51.4542Z" fill="#376999"/>
<path d="M11.0645 55.3787H13.9678C14.5171 55.3787 14.9879 55.8495 14.9879 56.3987V131.178C14.9879 131.727 14.5171 132.198 13.9678 132.198H11.0645C10.5152 132.198 10.0444 131.727 10.0444 131.178V56.3203C10.0444 55.771 10.5152 55.3787 11.0645 55.3787Z" fill="#376999"/>
<path d="M18.9913 55.3787H21.8161C22.3654 55.3787 22.8362 55.8495 22.8362 56.3987V131.178C22.8362 131.727 22.3654 132.198 21.8161 132.198H18.9913C18.442 132.198 17.9712 131.727 17.9712 131.178V56.3987C17.9712 55.771 18.442 55.3787 18.9913 55.3787Z" fill="#376999"/>
<path d="M26.9131 55.3787H29.7379C30.2872 55.3787 30.758 55.8495 30.758 56.3987V131.178C30.758 131.727 30.2872 132.198 29.7379 132.198H26.9131C26.3639 132.198 25.8931 131.727 25.8931 131.178V56.3987C25.9715 55.771 26.3639 55.3787 26.9131 55.3787Z" fill="#376999"/>
<path d="M155.523 34.4276L80.7432 0.529655C79.2524 -0.176552 77.4476 -0.176552 75.9567 0.529655L1.17737 34.4276C-0.784314 35.3692 -0.156594 38.351 2.04049 38.351H154.66C156.857 38.351 157.484 35.3692 155.523 34.4276ZM78.3108 29.955C74.8582 29.955 72.1118 27.1301 72.1118 23.756C72.1118 20.3035 74.9367 17.5571 78.3108 17.5571C81.6849 17.5571 84.5097 20.3819 84.5097 23.756C84.5881 27.1301 81.7633 29.955 78.3108 29.955Z" fill="#376999"/>
<path d="M33.9771 139.181L33.5848 138.317C33.5063 138.082 33.2709 138.004 33.0355 138.004H7.84746C7.61206 138.004 7.45511 138.161 7.29818 138.317L6.90584 139.181C6.7489 139.573 6.98432 140.044 7.45512 140.044H33.5063C33.8986 140.044 34.134 139.573 33.9771 139.181Z" fill="#376999"/>
<path d="M32.4867 136.123L31.5451 134.24C31.4667 134.004 31.2313 133.926 30.9959 133.926H9.73117C9.49577 133.926 9.33882 134.083 9.18189 134.24L8.24032 136.123C8.08338 136.515 8.31875 136.986 8.78955 136.986H31.859C32.4083 136.907 32.6437 136.515 32.4867 136.123Z" fill="#376999"/>
<path d="M72.5865 48.3151L72.1941 49.1783C72.1157 49.4137 71.8803 49.4921 71.6449 49.4921H46.4568C46.2214 49.4921 46.0645 49.3352 45.9076 49.1783L45.5152 48.3151C45.3583 47.9228 45.5936 47.452 46.0645 47.452H72.1156C72.508 47.452 72.7434 47.9228 72.5865 48.3151Z" fill="#376999"/>
<path d="M71.0942 51.4542L70.1526 53.3374C70.0741 53.5728 69.8387 53.6513 69.6033 53.6513H48.3386C48.1032 53.6513 47.9463 53.4944 47.7894 53.3374L46.8477 51.4542C46.6908 51.0618 46.9262 50.5911 47.397 50.5911H70.4665C71.0158 50.5911 71.2511 51.0618 71.0942 51.4542Z" fill="#376999"/>
<path d="M49.6699 55.3787H52.5732C53.1225 55.3787 53.5933 55.8495 53.5933 56.3987V131.178C53.5933 131.727 53.1225 132.198 52.5732 132.198H49.7484C49.1991 132.198 48.7283 131.727 48.7283 131.178V56.3203C48.6498 55.771 49.1207 55.3787 49.6699 55.3787Z" fill="#376999"/>
<path d="M57.5938 55.3787H60.4187C60.9679 55.3787 61.4387 55.8495 61.4387 56.3987V131.178C61.4387 131.727 60.9679 132.198 60.4187 132.198H57.5938C57.0445 132.198 56.5737 131.727 56.5737 131.178V56.3987C56.5737 55.771 57.0445 55.3787 57.5938 55.3787Z" fill="#376999"/>
<path d="M65.5206 55.3787H68.3454C68.8947 55.3787 69.3655 55.8495 69.3655 56.3987V131.178C69.3655 131.727 68.8947 132.198 68.3454 132.198H65.5206C64.9713 132.198 64.5005 131.727 64.5005 131.178V56.3987C64.579 55.771 64.9713 55.3787 65.5206 55.3787Z" fill="#376999"/>
<path d="M72.5865 139.181L72.1941 138.317C72.1157 138.082 71.8803 138.004 71.6449 138.004H46.4568C46.2214 138.004 46.0645 138.161 45.9076 138.317L45.5152 139.181C45.3583 139.573 45.5936 140.044 46.0645 140.044H72.1156C72.508 140.044 72.7434 139.573 72.5865 139.181Z" fill="#376999"/>
<path d="M71.0942 136.123L70.1526 134.24C70.0741 134.004 69.8387 133.926 69.6033 133.926H48.3386C48.1032 133.926 47.9463 134.083 47.7894 134.24L46.8477 136.123C46.6908 136.515 46.9262 136.986 47.397 136.986H70.4665C71.0158 136.907 71.2511 136.437 71.0942 136.123Z" fill="#376999"/>
<path d="M111.189 48.3151L110.797 49.1783C110.718 49.4137 110.483 49.4921 110.247 49.4921H85.0594C84.824 49.4921 84.667 49.3352 84.5101 49.1783L84.1178 48.3151C83.9608 47.9228 84.1962 47.452 84.667 47.452H110.718C111.111 47.452 111.346 47.9228 111.189 48.3151Z" fill="#376999"/>
<path d="M109.702 51.4542L108.76 53.3374C108.681 53.5728 108.446 53.6513 108.211 53.6513H86.9461C86.7107 53.6513 86.5537 53.4944 86.3968 53.3374L85.4552 51.4542C85.2982 51.0618 85.5336 50.5911 86.0044 50.5911H109.152C109.623 50.5911 109.859 51.0618 109.702 51.4542Z" fill="#376999"/>
<path d="M88.2725 55.3787H91.1757C91.725 55.3787 92.1958 55.8495 92.1958 56.3987V131.178C92.1958 131.727 91.725 132.198 91.1757 132.198H88.3509C87.8016 132.198 87.3309 131.727 87.3309 131.178V56.3203C87.2524 55.771 87.7232 55.3787 88.2725 55.3787Z" fill="#376999"/>
<path d="M96.2007 55.3787H99.0255C99.5748 55.3787 100.046 55.8495 100.046 56.3987V131.178C100.046 131.727 99.5748 132.198 99.0255 132.198H96.2007C95.6515 132.198 95.1807 131.727 95.1807 131.178V56.3987C95.2591 55.771 95.6515 55.3787 96.2007 55.3787Z" fill="#376999"/>
<path d="M104.128 55.3787H106.953C107.502 55.3787 107.973 55.8495 107.973 56.3987V131.178C107.973 131.727 107.502 132.198 106.953 132.198H104.128C103.579 132.198 103.108 131.727 103.108 131.178V56.3987C103.186 55.771 103.579 55.3787 104.128 55.3787Z" fill="#376999"/>
<path d="M111.189 139.181L110.797 138.317C110.718 138.082 110.483 138.004 110.247 138.004H85.0594C84.824 138.004 84.667 138.161 84.5101 138.317L84.1178 139.181C83.9608 139.573 84.1962 140.044 84.667 140.044H110.718C111.111 140.044 111.346 139.573 111.189 139.181Z" fill="#376999"/>
<path d="M109.702 136.123L108.76 134.24C108.681 134.004 108.446 133.926 108.211 133.926H86.9461C86.7107 133.926 86.5537 134.083 86.3968 134.24L85.4552 136.123C85.2982 136.515 85.5336 136.986 86.0044 136.986H109.152C109.623 136.907 109.859 136.437 109.702 136.123Z" fill="#376999"/>
<path d="M149.87 48.3151L149.477 49.1783C149.399 49.4137 149.163 49.4921 148.928 49.4921H123.74C123.505 49.4921 123.348 49.3352 123.191 49.1783L122.798 48.3151C122.641 47.9228 122.877 47.452 123.348 47.452H149.399C149.713 47.452 150.027 47.9228 149.87 48.3151Z" fill="#376999"/>
<path d="M148.381 51.4542L147.439 53.3374C147.361 53.5728 147.125 53.6513 146.89 53.6513H125.625C125.39 53.6513 125.233 53.4944 125.076 53.3374L124.134 51.4542C123.977 51.0618 124.213 50.5911 124.684 50.5911H147.753C148.224 50.5911 148.538 51.0618 148.381 51.4542Z" fill="#376999"/>
<path d="M126.882 55.3787H129.785C130.334 55.3787 130.805 55.8495 130.805 56.3987V131.178C130.805 131.727 130.334 132.198 129.785 132.198H126.96C126.411 132.198 125.94 131.727 125.94 131.178V56.3203C125.94 55.771 126.332 55.3787 126.882 55.3787Z" fill="#376999"/>
<path d="M134.887 55.3787H137.712C138.261 55.3787 138.732 55.8495 138.732 56.3987V131.178C138.732 131.727 138.261 132.198 137.712 132.198H134.887C134.338 132.198 133.867 131.727 133.867 131.178V56.3987C133.867 55.771 134.338 55.3787 134.887 55.3787Z" fill="#376999"/>
<path d="M142.814 55.3787H145.639C146.188 55.3787 146.659 55.8495 146.659 56.3987V131.178C146.659 131.727 146.188 132.198 145.639 132.198H142.814C142.265 132.198 141.794 131.727 141.794 131.178V56.3987C141.794 55.771 142.265 55.3787 142.814 55.3787Z" fill="#376999"/>
<path d="M149.87 139.181L149.477 138.317C149.399 138.082 149.163 138.004 148.928 138.004H123.74C123.505 138.004 123.348 138.161 123.191 138.317L122.798 139.181C122.641 139.573 122.877 140.044 123.348 140.044H149.399C149.713 140.044 150.027 139.573 149.87 139.181Z" fill="#376999"/>
<path d="M148.381 136.123L147.439 134.24C147.361 134.004 147.125 133.926 146.89 133.926H125.625C125.39 133.926 125.233 134.083 125.076 134.24L124.134 136.123C123.977 136.515 124.213 136.986 124.684 136.986H147.753C148.224 136.907 148.538 136.437 148.381 136.123Z" fill="#376999"/>
</svg>
